<!DOCTYPE svg PUBLIC "-//W3C//DTD SVG 20010904//EN" "http://www.w3.org/TR/2001/REC-SVG-20010904/DTD/svg10.dtd">
<svg version="1.0" xmlns="http://www.w3.org/2000/svg" width="256px" height="256px" viewBox="0 0 2560 2560" preserveAspectRatio="xMidYMid meet">
<g id="layer1" fill="#000000" stroke="none">
 <path d="M890 2547 c-48 -38 -62 -95 -36 -145 8 -15 97 -109 198 -210 l184 -182 179 2 c112 2 180 7 182 13 2 6 -101 105 -228 220 -376 340 -343 315 -408 315 -31 0 -63 -6 -71 -13z"/>
 <path d="M776 1900 c-64 -57 -52 -150 24 -192 31 -16 61 -18 287 -18 139 0 253 -2 253 -5 0 -3 -82 -121 -182 -261 -217 -307 -230 -334 -189 -412 44 -83 86 -116 389 -302 128 -79 231 -147 230 -151 -2 -5 -54 -55 -117 -112 l-115 -103 -240 48 c-272 55 -306 56 -348 9 -49 -55 -49 -107 0 -162 26 -29 38 -33 325 -91 164 -33 309 -57 321 -54 19 5 391 275 483 351 18 14 55 67 83 116 46 80 57 110 99 287 l47 197 188 5 188 5 29 33 c25 27 29 41 29 88 0 48 -4 59 -29 85 l-29 29 -261 0 -261 0 -30 -27 c-23 -22 -39 -57 -72 -159 l-43 -132 -185 118 c-113 72 -184 123 -183 132 3 17 203 466 232 523 25 46 27 85 7 124 -33 62 -25 61 -480 61 l-415 0 -35 -30z"/>
 <path d="M0 1335 l0 -65 420 0 419 0 42 55 c22 30 38 59 34 65 -4 7 -156 10 -461 10 l-454 0 0 -65z"/>
 <path d="M0 1015 l0 -65 389 0 c215 0 392 4 395 9 5 7 -4 41 -25 99 l-9 22 -375 0 -375 0 0 -65z"/>
 <path d="M0 695 l0 -65 585 0 c462 0 585 3 585 13 -1 6 -39 36 -86 65 l-86 52 -499 0 -499 0 0 -65z"/>
 <path d="M2118 540 c-78 -20 -153 -85 -189 -165 -25 -55 -25 -166 1 -222 25 -57 98 -126 148 -141 50 -15 163 -15 214 0 53 16 118 75 148 134 28 57 33 154 11 218 -18 52 -95 134 -147 157 -50 23 -136 31 -186 19z"/>
 </g>

</svg>