<!DOCTYPE svg PUBLIC "-//W3C//DTD SVG 20010904//EN" "http://www.w3.org/TR/2001/REC-SVG-20010904/DTD/svg10.dtd">
<svg version="1.0" xmlns="http://www.w3.org/2000/svg" width="626px" height="289px" viewBox="0 0 6260 2890" preserveAspectRatio="xMidYMid meet">
<g id="layer1" fill="#070707" stroke="none">
 <path d="M660 2538 l0 -353 -41 90 c-22 50 -53 124 -68 165 -16 41 -39 104 -52 140 -33 90 -107 164 -179 179 -135 29 -259 -15 -301 -106 -23 -52 -25 -152 -4 -220 34 -106 60 -179 72 -203 7 -14 13 -29 13 -34 0 -17 166 -390 227 -511 104 -205 216 -386 270 -436 62 -57 209 -94 398 -101 l80 -3 37 75 c61 125 118 250 118 259 0 5 7 15 17 22 15 13 16 11 10 -21 -3 -19 -9 -62 -12 -95 -4 -33 -13 -85 -22 -116 -8 -30 -13 -71 -11 -90 l3 -34 105 0 105 0 -1 50 c0 28 -8 91 -16 140 -9 50 -19 115 -22 145 l-6 55 20 -25 c11 -14 20 -28 20 -32 0 -4 34 -77 76 -162 89 -182 72 -171 269 -171 141 0 182 11 250 64 28 21 70 54 94 71 42 32 43 32 36 9 -9 -31 -78 -150 -130 -224 -36 -52 -40 -65 -43 -130 -3 -58 0 -82 17 -120 12 -26 21 -49 21 -50 0 -1 -32 4 -72 12 -39 7 -75 10 -80 5 -5 -5 -7 -116 -6 -248 3 -205 5 -239 18 -238 8 1 60 9 115 17 55 9 152 24 215 33 63 10 149 22 190 28 l75 12 5 54 5 55 655 0 655 0 5 -55 c5 -52 6 -55 35 -58 17 -2 80 -12 140 -22 61 -11 153 -25 205 -31 52 -6 124 -17 159 -25 36 -7 68 -11 73 -8 11 7 10 481 -1 488 -4 3 -40 -1 -80 -8 -39 -8 -71 -13 -71 -11 0 1 10 24 21 50 18 40 21 62 17 122 -4 64 -9 79 -44 129 -49 71 -119 192 -129 223 -7 23 -5 22 36 -9 24 -17 67 -50 94 -71 28 -22 68 -45 90 -52 47 -14 298 -15 333 0 17 7 44 52 102 171 43 90 85 173 94 185 15 21 15 19 10 -33 -3 -30 -13 -95 -22 -145 -8 -49 -16 -112 -16 -140 l-1 -50 105 0 105 0 3 34 c2 19 -3 60 -11 90 -9 31 -18 83 -22 116 -3 33 -9 76 -12 95 -6 32 -5 34 10 21 10 -7 17 -18 17 -23 0 -10 55 -130 115 -252 l40 -81 80 3 c178 6 337 45 393 96 28 25 96 120 137 191 16 28 37 64 47 80 36 61 141 272 179 359 22 50 49 109 59 131 26 53 76 174 85 205 4 14 11 30 15 35 6 9 28 72 65 188 8 26 15 77 15 113 0 124 -58 194 -179 216 -124 23 -230 -20 -285 -115 -22 -38 -96 -218 -96 -233 0 -8 -91 -217 -99 -226 -3 -4 -5 153 -3 347 l2 355 -635 0 -635 0 0 -555 0 -555 -57 37 c-177 113 -426 177 -550 142 -65 -19 -146 -97 -164 -159 -17 -58 -17 -310 0 -410 38 -224 164 -497 301 -653 l41 -46 -28 -6 c-70 -14 -78 -19 -83 -55 l-5 -35 -655 0 -655 0 -5 35 c-5 36 -13 41 -83 55 l-28 6 41 46 c137 156 264 431 301 653 17 97 17 351 0 409 -18 64 -86 132 -155 155 -61 21 -122 18 -264 -10 -81 -17 -226 -80 -302 -132 l-45 -31 -3 554 -2 555 -635 0 -635 0 0 -352z m702 -351 l33 -63 -18 -79 c-29 -128 -48 -188 -56 -179 -8 10 -44 137 -61 216 -9 42 -7 51 15 90 13 24 27 51 31 61 11 28 21 20 56 -46z m3593 44 c6 -10 20 -37 33 -61 l23 -42 -31 -126 c-18 -70 -35 -131 -40 -135 -9 -10 -23 30 -45 128 -9 39 -20 81 -26 95 -8 21 -3 37 26 93 20 37 39 67 43 67 4 0 12 -8 17 -19z"/>
 <path d="M1174 1060 c-120 -24 -245 -127 -303 -250 -33 -69 -36 -84 -39 -182 -3 -91 0 -116 18 -165 32 -85 62 -132 122 -189 68 -64 143 -101 240 -116 163 -25 313 25 415 136 90 100 122 183 123 319 0 74 -5 100 -30 166 -54 140 -178 249 -320 280 -52 12 -167 12 -226 1z"/>
 <path d="M4855 1059 c-202 -46 -345 -231 -345 -447 0 -87 27 -190 64 -247 67 -101 175 -177 285 -201 85 -18 135 -18 227 2 88 18 157 58 225 131 85 90 119 181 119 312 0 142 -42 245 -138 338 -107 102 -282 147 -437 112z"/>
 </g>

</svg>