<svg xmlns="http://www.w3.org/2000/svg" width="115791.666" height="27527.84" viewBox="0 0 108.55469 25.80735"><g><g fill="#fff"><path d="M4.785 0v9.93l3.76-1.385c2.316-.084 4.65.875 6.238 2.563 1.5 1.595 2.312 3.793 2.307 5.982-.005 2.187-.824 4.374-2.307 5.98-1.577 1.71-3.92 2.725-6.238 2.565-1.348-.093-2.667-.573-3.76-1.367v1.367H0V.017zm-.77 16.71l4.36 4.994 4.613-4.956-4.614-4.255-3.59 3.366z"/><path d="M20.525 25.635V8.528h4.785v17.107h-4.785zm-.17-21.192c-.002.63.23 1.27.683 1.71.49.476 1.196.683 1.88.683.683 0 1.39-.207 1.88-.684.45-.44.684-1.078.683-1.71 0-.628-.234-1.265-.683-1.708-.496-.49-1.216-.708-1.914-.7-.674.007-1.365.227-1.845.7-.45.442-.683 1.08-.684 1.71zM40.024 24.832c-.86.48-1.834.758-2.82.803-1.668.076-3.35-.53-4.614-1.624-.592-.512-1.092-1.144-1.38-1.874-.285-.73-.33-1.528-.33-2.312v-7.4H28.32V8.562h2.563v-4.63l4.804-.514v5.144h2.563v3.862h-2.563v6.717c0 .346.004.694.083 1.03.08.336.236.658.48.902.192.19.433.33.69.416.255.088.527.125.797.13.437.01.874-.067 1.282-.222l1.008 3.436zM55.645 25.635h4.272L64.48 8.528h-4.495l-2.63 10.27L54.91 8.53h-3.538l-2.563 10.1-2.65-10.1h-4.495l4.58 17.107h4.273l2.563-8.562 2.565 8.562zM67.898 25.635V8.528h4.785v17.107h-4.785zm-.17-21.192c-.002.63.23 1.27.683 1.71.49.476 1.197.683 1.88.683.684 0 1.39-.207 1.88-.684.453-.44.685-1.078.684-1.71 0-.628-.235-1.265-.684-1.708-.496-.49-1.216-.708-1.914-.7-.674.007-1.365.227-1.845.7-.448.442-.682 1.08-.683 1.71zM82.766 8.442c1.27-.07 2.566.095 3.743.58.94.39 1.798.984 2.494 1.728l-2.666 3.007c-.85-.67-1.85-1.147-2.905-1.384-.42-.094-.86-.15-1.282-.065-.21.042-.416.12-.595.24-.18.12-.332.282-.43.474-.09.18-.133.38-.13.58.003.2.05.4.13.583.183.42.543.76.972.918.43.16.923.135 1.336-.064 1.51-.15 3.077.397 4.17 1.452 1.12 1.08 1.718 2.668 1.623 4.22-.088 1.447-.78 2.86-1.914 3.76-1.237.984-2.88 1.31-4.46 1.334-1.38.02-2.774-.165-4.05-.684-1.04-.42-1.988-1.06-2.77-1.863l2.65-2.99 3.606 1.605c.418.233.925.3 1.39.184.464-.117.88-.415 1.14-.817.12-.19.21-.4.243-.622.035-.22.014-.452-.072-.66-.098-.232-.275-.427-.486-.565-.212-.14-.455-.224-.703-.27-.497-.094-1.007-.04-1.512-.036-1.375.01-2.783-.39-3.83-1.282-1.123-.96-1.75-2.453-1.725-3.93.028-1.545.764-3.065 1.966-4.034 1.133-.916 2.61-1.32 4.066-1.402zM91.807 17.09q0-3.76 2.392-6.152 2.392-2.393 6.152-2.393 3.76 0 5.98 2.393 2.223 2.392 2.223 6.152v1.71H96.763q.17 1.366 1.196 2.135 1.024.77 2.392.77 2.392 0 4.272-1.368l2.734 2.734q-1.88 2.565-7.006 2.565-3.76 0-6.153-2.393-2.393-2.392-2.393-6.152zm11.963-1.71q0-1.366-1.026-2.135-1.025-.77-2.392-.77-1.368 0-2.393.77-1.026.77-1.026 2.136h6.836z" font-size="35"/></g></g></svg>
